<svg width="24" height="24" viewBox="0 0 24 24" fill="none" xmlns="http://www.w3.org/2000/svg">
<path d="M2.88 12C2.88 7.7008 2.88 5.55119 4.2156 4.2156C5.55119 2.88 7.7008 2.88 12 2.88C16.2992 2.88 18.4488 2.88 19.7844 4.2156C21.12 5.55119 21.12 7.7008 21.12 12C21.12 16.2992 21.12 18.4488 19.7844 19.7844C18.4488 21.12 16.2992 21.12 12 21.12C7.7008 21.12 5.55119 21.12 4.2156 19.7844C2.88 18.4488 2.88 16.2992 2.88 12Z" stroke="#2D2D2D" stroke-width="1.5" stroke-linejoin="round"/>
<path d="M16.32 12C16.32 14.3859 14.3859 16.32 12 16.32C9.61412 16.32 7.67999 14.3859 7.67999 12C7.67999 9.61412 9.61412 7.67999 12 7.67999C14.3859 7.67999 16.32 9.61412 16.32 12Z" stroke="#2D2D2D" stroke-width="1.5"/>
<path d="M17.2883 6.71997L17.2793 6.71997" stroke="#2D2D2D" stroke-width="2" stroke-linecap="round" stroke-linejoin="round"/>
</svg>
