<svg width="20" height="20" viewBox="0 0 20 20" fill="none" xmlns="http://www.w3.org/2000/svg">
<g id="shopping-bag">
<g id="Bag">
<path id="Vector" d="M2.55128 12.6611L2.85565 10.9349C3.21538 8.8947 3.39525 7.8746 4.10754 7.27063C4.81982 6.66666 5.84301 6.66666 7.88937 6.66666H12.1105C14.1568 6.66666 15.18 6.66666 15.8923 7.27063C16.6046 7.8746 16.7845 8.8947 17.1442 10.9349L17.4486 12.6611C17.9463 15.4842 18.1952 16.8958 17.4288 17.8229C16.6624 18.75 15.2465 18.75 12.4148 18.75H7.585C4.7533 18.75 3.33745 18.75 2.57103 17.8229C1.8046 16.8958 2.0535 15.4842 2.55128 12.6611Z" stroke="#2D2D2D" stroke-width="1.5"/>
<path id="Vector 7277" d="M6.25 6.66667L6.38985 4.98848C6.54631 3.11089 8.11589 1.66667 10 1.66667C11.8841 1.66667 13.4537 3.11089 13.6102 4.98848L13.75 6.66667" stroke="#2D2D2D" stroke-width="1.5"/>
<path id="Vector 7278" d="M12.5 9.16667C12.3916 10.3442 11.3047 11.25 10 11.25C8.69527 11.25 7.60835 10.3442 7.5 9.16667" stroke="#2D2D2D" stroke-width="1.5" stroke-linecap="round"/>
</g>
</g>
</svg>
