<svg width="32" height="32" viewBox="0 0 32 32" fill="none" xmlns="http://www.w3.org/2000/svg">
<g id="square-lock">
<g id="Lock">
<path id="Vector" d="M5.69033 25.1263C5.99017 27.3533 7.83476 29.098 10.0795 29.2012C11.9683 29.288 13.887 29.3333 15.9999 29.3333C18.1128 29.3333 20.0316 29.288 21.9204 29.2012C24.1651 29.098 26.0097 27.3533 26.3095 25.1263C26.5052 23.6729 26.6666 22.1835 26.6666 20.6667C26.6666 19.1498 26.5052 17.6604 26.3095 16.207C26.0097 13.98 24.1651 12.2353 21.9204 12.1321C20.0316 12.0453 18.1128 12 15.9999 12C13.887 12 11.9683 12.0453 10.0795 12.1321C7.83476 12.2353 5.99017 13.98 5.69033 16.207C5.49464 17.6604 5.33325 19.1498 5.33325 20.6667C5.33325 22.1835 5.49464 23.6729 5.69033 25.1263Z" stroke="#3C9F36" stroke-width="1.5"/>
<path id="Vector 6658" d="M10 12V8.66669C10 5.35298 12.6863 2.66669 16 2.66669C19.3137 2.66669 22 5.35298 22 8.66669V12" stroke="#3C9F36" stroke-width="1.5" stroke-linecap="round" stroke-linejoin="round"/>
<path id="Vector_2" d="M15.9946 20.6667H16.0066" stroke="#3C9F36" stroke-width="2" stroke-linecap="round" stroke-linejoin="round"/>
</g>
</g>
</svg>
