<svg width="24" height="24" viewBox="0 0 24 24" fill="none" xmlns="http://www.w3.org/2000/svg">
<path d="M12 20C13.8097 20 15.5451 19.8212 17.1534 19.4934C19.1623 19.0839 20.1668 18.8791 21.0834 17.7006C22 16.5221 22 15.1693 22 12.4635V10.5365C22 7.83073 22 6.47787 21.0834 5.29937C20.1668 4.12088 19.1623 3.91613 17.1534 3.50662C15.5451 3.17877 13.8097 3 12 3C10.1903 3 8.45489 3.17877 6.84656 3.50662C4.83766 3.91613 3.83321 4.12088 2.9166 5.29937C2 6.47787 2 7.83073 2 10.5365V12.4635C2 15.1693 2 16.5221 2.9166 17.7006C3.83321 18.8791 4.83766 19.0839 6.84656 19.4934C8.45489 19.8212 10.1903 20 12 20Z" stroke="#2D2D2D" stroke-width="1.5"/>
<path d="M15.9621 11.8129C15.8137 12.4187 15.0241 12.8538 13.4449 13.7241C11.7272 14.6705 10.8684 15.1438 10.1728 14.9615C9.9372 14.8997 9.7202 14.7911 9.53799 14.6438C9 14.2089 9 13.3059 9 11.5C9 9.69408 9 8.79112 9.53799 8.35618C9.7202 8.20886 9.9372 8.10029 10.1728 8.03854C10.8684 7.85621 11.7272 8.32945 13.4449 9.27593C15.0241 10.1462 15.8137 10.5813 15.9621 11.1871C16.0126 11.3933 16.0126 11.6067 15.9621 11.8129Z" stroke="#2D2D2D" stroke-width="1.5" stroke-linejoin="round"/>
</svg>
